# xmcd CD database file
#
# Track frame offsets:
#	150
#	9731
#	24366
#	33442
#	46894
#	65203
#	81120
#	95926
#	117202
#	130327
#	146468
#	160058
#	180022
#	195190
#
# Disc length: 2611 seconds
#
# Revision: 0
# Processed by: cddbd v1.5.2PL0 Copyright (c) Steve Scherf et al.
# Submitted via: CDex 1.51
#
DISCID=b00a310e
DTITLE=Reid Wilson and his So-Called Friends - Country Music Revolution
DYEAR=2009
DGENRE=Country
TTITLE0=Biscuits
TTITLE1=Country Music Revolution
TTITLE2=Rowdy
TTITLE3=Girls with Tattoos
TTITLE4=The Professional
TTITLE5=$3 Bill
TTITLE6=The Hairijuana Song
TTITLE7=Downtown
TTITLE8=Rodeo
TTITLE9=Gimme my Riches
TTITLE10=Crazy Thing
TTITLE11=Tanner Hyde
TTITLE12=Watch What You Say
TTITLE13=Bonus Track
EXTD=YEAR: 2009
EXTT0=
EXTT1=
EXTT2=
EXTT3=
EXTT4=
EXTT5=
EXTT6=
EXTT7=
EXTT8=
EXTT9=
EXTT10=
EXTT11=
EXTT12=
EXTT13=
PLAYORDER=
